<svg 
          width="69.00182342529297" 
          height="66.00000762939453" fill="none" 
          xmlns="http://www.w3.org/2000/svg">
          <path d="M 65.99165518331728 40.50000468167392 L 0.7510244665493963 40.50000468167392 C 0.33852443480404504 40.50000468167392 0.0010244520656412868 40.837504711747165 0.0010244520656412868 41.25000476837158 L 0.0010244520656412868 46.875005418604076 C 0.0010244520656412868 47.28750547522849 0.33852443480404504 47.625005505301736 0.7510244665493963 47.625005505301736 L 57.488528568821195 47.625005505301736 L 43.96040396534144 64.78125748851083 C 43.57602895303235 65.26875752698292 43.92290283674044 66.00000762939453 44.551027853584316 66.00000762939453 L 51.34790322934282 66.00000762939453 C 51.807278263679606 66.00000762939453 52.23852599870236 65.793759903312 52.529151005828574 65.42813485210618 L 68.35415073628879 45.356254098631986 C 69.90102582180624 43.38750387105061 68.50415525069278 40.50000468167392 65.99165518331728 40.50000468167392 L 65.99165518331728 40.50000468167392 Z M 68.2510280194061 18.375002124092795 L 11.513523738320362 18.375002124092795 L 25.04165120282322 1.2187501408837058 C 25.426026215132314 0.7312501024116189 25.079149470401113 0 24.45102445355724 0 L 17.654149077798735 0 C 17.194774043461944 0 16.7635263084392 0.20625058710581617 16.472901301312984 0.5718756383116257 L 0.6478989333470973 20.643753530762545 C -0.8989761521703552 22.612503758343916 0.4978995598439977 25.500002947720617 3.001024769752362 25.500002947720617 L 68.2510280194061 25.500002947720617 C 68.66352805115146 25.500002947720617 69.00102806086912 25.162502917647362 69.00102806086912 24.75000286102295 L 69.00102806086912 19.125002210790463 C 69.00102806086912 18.71250215416605 68.66352805115146 18.375002124092795 68.2510280194061 18.375002124092795 Z" fill="rgb(0,101.9999635219574,255)"/>
        </svg>