<svg 
          width="28.268571853637695" 
          height="29.107149124145508" fill="none" 
          xmlns="http://www.w3.org/2000/svg">
          <path d="M 16.464643637094863 14.553571837288915 L 28.183392387659012 0.5848217174737359 C 28.379820965238416 0.3526788623264082 28.21464348638869 0 27.911072046376216 0 L 24.348572556994338 0 C 24.138751134915406 0 23.937856083236706 0.09374987065112556 23.799463229017366 0.25446415662138117 L 14.134287289210741 11.77678550006414 L 4.469108284022356 0.25446415662138117 C 4.3351797113028585 0.09374987065112556 4.134286043303425 0 3.9200003184372796 0 L 0.3575007439059066 0 C 0.05392930389342926 0 -0.11124955331371854 0.3526788623264082 0.08517902426568598 0.5848217174737359 L 11.803929578934726 14.553571837288915 L 0.08517902426568598 28.522323319496014 C 0.04117721997510177 28.57406737435555 0.012948374122658363 28.637349957445075 0.003842865819165715 28.70466040434606 C -0.005262642484326932 28.771970851247048 0.00513763837146591 28.84047948990959 0.03381003791326229 28.902054644683137 C 0.06248243745505867 28.963629799456683 0.10822260058358649 29.015684415811595 0.16559897948552804 29.05203764624454 C 0.2229753583874696 29.088390876677483 0.2895782383663512 29.107517045259364 0.3575007439059066 29.10714367457783 L 3.9200003184372796 29.10714367457783 C 4.12982174051621 29.10714367457783 4.330715429803017 29.013393122730747 4.469108284022356 28.852678836760493 L 14.134287289210741 17.33035817451369 L 23.799463229017366 28.852678836760493 C 23.933391801736864 29.013393122730747 24.134286832128193 29.10714367457783 24.348572556994338 29.10714367457783 L 27.911072046376216 29.10714367457783 C 28.21464348638869 29.10714367457783 28.379820965238416 28.75446617464334 28.183392387659012 28.522323319496014 L 16.464643637094863 14.553571837288915 Z" fill="rgb(255,255,255)"/>
        </svg>