<svg 
          width="47.142860412597656" 
          height="64" fill="none" 
          xmlns="http://www.w3.org/2000/svg">
          <path d="M 23.571430206298828 40 C 30.278573637627943 40 35.71428819136186 34.62857164655413 35.71428819136186 28 L 35.71428819136186 12 C 35.71428819136186 5.371428353445871 30.278573637627943 0 23.571430206298828 0 C 16.864286774969713 0 11.428572221235795 5.371428353445871 11.428572221235795 12 L 11.428572221235795 28 C 11.428572221235795 34.62857164655413 16.864286774969713 40 23.571430206298828 40 Z M 47.142860412597656 27.857142857142854 C 47.142860412597656 27.542857136045182 46.88571754443181 27.285714285714285 46.571431801535866 27.285714285714285 L 42.285717218572444 27.285714285714285 C 41.971431475676496 27.285714285714285 41.71428860751065 27.542857136045182 41.71428860751065 27.857142857142854 C 41.71428860751065 37.87857164655413 33.592859690777686 46 23.571430206298828 46 C 13.550000721819973 46 5.428571805087003 37.87857164655413 5.428571805087003 27.857142857142854 C 5.428571805087003 27.542857136045182 5.171428936921158 27.285714285714285 4.857143194025213 27.285714285714285 L 0.5714286110617898 27.285714285714285 C 0.25714286816584553 27.285714285714285 0 27.542857136045182 0 27.857142857142854 C 0 39.907142639160156 9.042858206018256 49.84999820164272 20.71428715098988 51.25714111328125 L 20.71428715098988 58.57142857142857 L 10.335715874510987 58.57142857142857 C 9.357144391691591 58.57142857142857 8.571429165926846 59.59285708836146 8.571429165926846 60.857142857142854 L 8.571429165926846 63.42857142857142 C 8.571429165926846 63.7428571496691 8.771430044917377 64 9.014287211430597 64 L 38.12857320116706 64 C 38.371430367680276 64 38.57143124667081 63.7428571496691 38.57143124667081 63.42857142857142 L 38.57143124667081 60.857142857142854 C 38.57143124667081 59.59285708836146 37.785716020906065 58.57142857142857 36.80714453808667 58.57142857142857 L 26.142858956076882 58.57142857142857 L 26.142858956076882 51.292855398995535 C 37.95000285012383 50.00714111328125 47.142860412597656 40.00714329310826 47.142860412597656 27.857142857142854 Z" fill="rgb(255,255,255)"/>
        </svg>